HIERARCHY
ROOT SpineBase
{
  OFFSET 0.000000 0.000000 0.000000
  CHANNELS 6 Xposition Yposition Zposition Zrotation Xrotation Yrotation
  JOINT SpineMid
  {
    OFFSET -0.000000 31.517893 0.000000
    CHANNELS 3 Zrotation Xrotation Yrotation
    JOINT SpineShoulder
    {
      OFFSET 0.042027 23.229106 -0.747172
      CHANNELS 3 Zrotation Xrotation Yrotation
      JOINT Neck
      {
        OFFSET 0.048894 7.659200 -0.590310
        CHANNELS 3 Zrotation Xrotation Yrotation
        JOINT Head
        {
          OFFSET 1.761651 10.714210 5.775496
          CHANNELS 3 Zrotation Xrotation Yrotation
          End Site
          {
            OFFSET 0 0 0
          }
        }
      }
      JOINT ShoulderLeft
      {
        OFFSET -1.570392 -2.956160 -9.184747
        CHANNELS 3 Zrotation Xrotation Yrotation
        JOINT ElbowLeft
        {
          OFFSET -3.935863 -21.159091 -5.928381
          CHANNELS 3 Zrotation Xrotation Yrotation
          JOINT WristLeft
          {
            OFFSET 22.992275 4.349303 -1.554508
            CHANNELS 3 Zrotation Xrotation Yrotation
            JOINT HandLeft
            {
              OFFSET 2.719563 2.883419 -1.298560
              CHANNELS 3 Zrotation Xrotation Yrotation
              JOINT HandTipLeft
              {
                OFFSET 3.203835 3.403227 -0.879083
                CHANNELS 3 Zrotation Xrotation Yrotation
                End Site
                {
                  OFFSET 0 0 0
                }
              }
              JOINT ThumbLeft
              {
                OFFSET 1.652189 -1.819120 -2.563944
                CHANNELS 3 Zrotation Xrotation Yrotation
                End Site
                {
                  OFFSET 0 0 0
                }
              }
            }
          }
        }
      }
      JOINT ShoulderRight
      {
        OFFSET 9.096030 -8.056934 11.624458
        CHANNELS 3 Zrotation Xrotation Yrotation
        JOINT ElbowRight
        {
          OFFSET -10.259614 -12.642138 -19.413965
          CHANNELS 3 Zrotation Xrotation Yrotation
          JOINT WristRight
          {
            OFFSET 19.782557 10.494378 -11.084041
            CHANNELS 3 Zrotation Xrotation Yrotation
            JOINT HandRight
            {
              OFFSET 6.024156 6.418685 -6.357255
              CHANNELS 3 Zrotation Xrotation Yrotation
              JOINT HandTipRight
              {
                OFFSET 0.605810 4.411852 -0.664252
                CHANNELS 3 Zrotation Xrotation Yrotation
                End Site
                {
                  OFFSET 0 0 0
                }
              }
              JOINT ThumbRight
              {
                OFFSET 1.027341 5.300943 -3.361086
                CHANNELS 3 Zrotation Xrotation Yrotation
                End Site
                {
                  OFFSET 0 0 0
                }
              }
            }
          }
        }
      }
    }
  }
  JOINT HipLeft
  {
    OFFSET -1.936246 2.758373 -6.097099
    CHANNELS 3 Zrotation Xrotation Yrotation
    JOINT KneeLeft
    {
      OFFSET -3.988892 -30.890731 -1.173479
      CHANNELS 3 Zrotation Xrotation Yrotation
      JOINT AnkleLeft
      {
        OFFSET -6.062052 -31.461451 1.203034
        CHANNELS 3 Zrotation Xrotation Yrotation
        JOINT FootLeft
        {
          OFFSET 3.641821 -6.020703 3.682026
          CHANNELS 3 Zrotation Xrotation Yrotation
          End Site
          {
            OFFSET 0 0 0
          }
        }
      }
    }
  }
  JOINT HipRight
  {
    OFFSET 3.152516 -0.376499 -0.749278
    CHANNELS 3 Zrotation Xrotation Yrotation
    JOINT KneeRight
    {
      OFFSET -0.835339 -32.583288 9.319241
      CHANNELS 3 Zrotation Xrotation Yrotation
      JOINT AnkleRight
      {
        OFFSET -10.841638 -30.483129 -7.027591
        CHANNELS 3 Zrotation Xrotation Yrotation
        JOINT FootRight
        {
          OFFSET 0.195123 -7.116634 0.575209
          CHANNELS 3 Zrotation Xrotation Yrotation
          End Site
          {
            OFFSET 0 0 0
          }
        }
      }
    }
  }
}
MOTION
Frames: 16
Frame Time: 0.033333
-56.113473 70.559550 307.871138 0.000000 0.000000 -46.421917 -0.000000 0.000000 46.421917 -0.000000 0.000000 0.000000 -0.000000 0.000000 0.000000 0.000000 0.000000 0.000000 -0.000000 0.000000 0.000000 -0.000000 0.000000 0.000000 -0.000000 0.000000 0.000000 -0.000000 0.000000 0.000000 0.000000 0.000000 0.000000 0.000000 0.000000 0.000000 -0.000000 0.000000 0.000000 -0.000000 0.000000 0.000000 -0.000000 0.000000 0.000000 -0.000000 0.000000 0.000000 0.000000 0.000000 0.000000 0.000000 0.000000 0.000000 -0.000000 0.000000 46.421917 -0.000000 0.000000 0.000000 -0.000000 0.000000 0.000000 0.000000 0.000000 0.000000 -0.000000 0.000000 46.421917 -0.000000 0.000000 0.000000 -0.000000 0.000000 0.000000 0.000000 0.000000 0.000000
-56.323656 70.623631 307.535847 -0.380142 0.443669 -45.788482 0.583083 -0.036892 45.790141 -0.739946 0.510742 -0.057009 1.777036 0.037826 -0.580400 0.000000 0.000000 0.000000 0.740483 -0.509963 0.063603 -0.055181 0.258150 -1.381819 0.358896 -2.937988 4.007374 0.548322 1.851880 -1.692275 0.000000 0.000000 0.000000 0.000000 0.000000 0.000000 0.740483 -0.509963 0.063603 -0.156901 0.464162 -1.041800 3.285923 1.335286 2.572772 -6.531695 -16.493026 -0.530209 0.000000 0.000000 0.000000 0.000000 0.000000 0.000000 1.472433 -0.034774 45.849263 -0.621023 0.636626 -0.055116 -0.000000 0.000000 0.000000 0.000000 0.000000 0.000000 0.583083 -0.036892 45.790141 -0.000000 0.000000 0.000000 7.241386 6.222910 0.363668 0.000000 0.000000 0.000000
-56.508262 70.678230 307.242837 -0.706629 0.824286 -45.202908 0.037496 -0.338980 45.174293 -0.413271 0.380182 -0.075816 3.214263 0.078848 -1.043938 0.000000 0.000000 0.000000 1.335687 -0.936650 0.119780 -0.115378 0.493948 -2.641516 1.020983 -5.331708 7.518387 0.985804 3.283679 -3.108761 0.000000 0.000000 0.000000 0.000000 0.000000 0.000000 1.335687 -0.936650 0.119780 -0.207115 0.862328 -1.851012 6.277477 2.852969 4.798748 -12.866366 -29.141489 -2.205338 0.000000 0.000000 0.000000 0.000000 0.000000 0.000000 2.732552 -0.082307 45.318645 -1.158102 1.175025 -0.095701 -0.000000 0.000000 0.000000 0.000000 0.000000 0.000000 2.327883 -0.293289 45.446199 -0.721164 1.037299 -0.226881 13.641616 10.539796 0.133946 0.000000 0.000000 0.000000
-56.667292 70.723348 306.992107 -0.979157 1.141485 -44.655946 0.060821 -0.447718 44.618501 -0.536567 0.507551 -0.100142 4.305820 0.120244 -1.391720 0.000000 0.000000 0.000000 2.688353 -1.514868 -0.020188 -1.082604 0.933396 -3.546053 1.889166 -7.252563 10.594343 1.304461 4.388412 -4.297583 0.000000 0.000000 0.000000 0.000000 0.000000 0.000000 1.790259 -1.283515 0.166112 -0.154235 1.191502 -2.427576 8.847642 4.394398 6.598482 -18.599138 -37.561414 -4.479405 0.000000 0.000000 0.000000 0.000000 0.000000 0.000000 3.780506 -0.133770 44.819502 -1.611863 1.615227 -0.124335 -0.000000 0.000000 0.000000 0.000000 0.000000 0.000000 3.254455 -0.446769 45.004620 -1.013192 1.469832 -0.315566 18.975325 12.669322 -0.230333 0.000000 0.000000 0.000000
-56.800745 70.758985 306.783657 -1.197492 1.395015 -44.139750 0.086229 -0.516785 44.096726 -0.607809 0.595292 -0.116519 5.047341 0.159510 -1.624529 0.000000 0.000000 0.000000 3.105747 -1.792816 -0.004596 -1.257791 1.120264 -4.470651 2.894709 -8.764402 13.274009 1.501322 5.237420 -5.298765 0.000000 0.000000 0.000000 0.000000 0.000000 0.000000 2.107836 -1.553388 0.200782 -0.001223 1.450242 -2.771680 10.861826 5.776095 7.904047 -23.092879 -42.486498 -6.621558 0.000000 0.000000 0.000000 0.000000 0.000000 0.000000 4.616482 -0.181866 44.342489 -1.982695 1.957165 -0.143142 -0.000000 0.000000 0.000000 0.000000 0.000000 0.000000 4.021681 -0.596968 44.580739 -1.259284 1.843722 -0.388872 23.129794 12.543722 -0.337655 0.000000 0.000000 0.000000
-56.908621 70.785141 306.617488 -1.361462 1.584711 -43.647459 0.113307 -0.546581 43.601801 -0.628699 0.644573 -0.125436 5.435667 0.194380 -1.742839 0.000000 0.000000 0.000000 3.288528 -1.961693 0.015620 -1.341255 1.239733 -5.237784 3.989334 -9.922185 15.582534 1.575216 5.884466 -6.144739 0.000000 0.000000 0.000000 0.000000 0.000000 0.000000 2.291033 -1.748431 0.222490 0.249712 1.638471 -2.883454 12.176537 6.805828 8.657947 -25.644047 -44.714675 -7.938771 0.000000 0.000000 0.000000 0.000000 0.000000 0.000000 5.240545 -0.220390 43.879239 -2.270713 2.200584 -0.153800 -0.000000 0.000000 0.000000 0.000000 0.000000 0.000000 4.629094 -0.739227 44.166100 -1.459323 2.158278 -0.447518 26.058881 10.089832 0.079794 0.000000 0.000000 0.000000
-56.967283 70.853923 306.582336 -1.541255 1.650763 -43.233728 0.081389 -0.484087 43.186259 -0.612064 0.710289 -0.130600 5.959376 0.014146 -1.916578 0.000000 0.000000 0.000000 2.432260 -1.944505 0.240902 -0.659583 1.114767 -5.956598 7.262150 -9.713967 17.932685 -0.353030 6.267012 -7.331099 0.000000 0.000000 0.000000 0.000000 0.000000 0.000000 3.261964 -2.042994 -0.928643 0.337260 2.194192 -1.582412 12.295714 7.209110 8.925900 -26.313805 -45.068215 -8.270601 0.000000 0.000000 0.000000 0.000000 0.000000 0.000000 5.569977 -0.054018 43.455993 -2.472346 2.213122 -0.143612 -0.000000 0.000000 0.000000 0.000000 0.000000 0.000000 4.939676 -0.682378 43.787260 -1.569554 2.244973 -0.478257 28.917211 8.689095 0.381748 0.000000 0.000000 0.000000
-57.037044 70.860056 306.494747 -1.631816 1.739198 -42.581396 0.127768 -0.422364 42.536965 -0.503683 0.687674 -0.123334 5.654882 -0.130440 -1.798988 0.000000 0.000000 0.000000 2.333868 -2.021887 0.233711 -1.467578 1.421100 -7.531209 13.180776 -11.171063 24.690491 -1.783581 9.359574 -11.628160 0.000000 0.000000 0.000000 0.000000 0.000000 0.000000 3.493147 -1.965114 -1.561108 1.175273 2.375306 -0.300814 9.963357 6.683592 6.800767 -22.179233 -44.505217 -5.477455 0.000000 0.000000 0.000000 0.000000 0.000000 0.000000 5.758313 -0.041504 42.801748 -2.572672 2.197200 -0.136173 -0.269529 0.946442 0.412561 0.000000 0.000000 0.000000 5.343891 -0.833933 43.193430 -1.713407 2.508706 -0.519953 29.424938 3.700278 1.554300 0.000000 0.000000 0.000000
-57.072203 70.845202 306.438478 -1.571844 1.736394 -42.322173 0.221876 -0.311809 42.286184 -0.324045 0.603844 -0.101417 4.378894 -0.056896 -1.378400 0.000000 0.000000 0.000000 1.947140 -1.954978 0.195555 -1.822527 1.229492 -6.594666 7.902463 -9.483157 18.012106 0.694277 4.370126 -5.236473 0.000000 0.000000 0.000000 0.000000 0.000000 0.000000 3.307774 -1.561910 -2.178747 0.968109 1.840637 0.700816 8.884172 7.207597 4.493358 -16.836165 -42.228776 -1.959171 0.000000 0.000000 0.000000 0.000000 0.000000 0.000000 5.720462 -0.093004 42.544452 -2.587702 2.193535 -0.134925 -0.155939 1.262504 0.675147 0.000000 0.000000 0.000000 5.457992 -0.967243 42.965405 -1.784262 2.673092 -0.540661 27.956856 -5.425445 3.470209 0.000000 0.000000 0.000000
-57.113301 70.772089 306.359122 -1.450371 1.695818 -42.601942 0.316879 -0.258049 42.572752 -0.210473 0.473043 -0.083506 3.084581 0.244077 -0.941815 0.000000 0.000000 0.000000 1.606241 -1.760753 0.159555 -1.124682 1.064969 -5.737891 4.440788 -10.080950 15.777686 4.702277 3.779107 -3.824350 0.000000 0.000000 0.000000 0.000000 0.000000 0.000000 2.888572 -0.929242 -2.448952 0.958621 1.067647 1.495726 7.539366 5.616105 4.225456 -13.070786 -36.195643 -1.102251 0.000000 0.000000 0.000000 0.000000 0.000000 0.000000 5.676411 -0.210925 42.843095 -2.576788 2.311955 -0.148130 -0.105002 1.881928 1.087452 0.000000 0.000000 0.000000 5.391811 -1.052466 43.247368 -1.694532 1.977572 -0.289589 25.002052 -17.343004 4.940165 0.000000 0.000000 0.000000
-57.110663 70.693476 306.294899 -1.169160 1.509860 -43.253681 0.443046 -0.239491 43.232844 -0.064237 0.277257 -0.054850 1.057785 1.541326 -0.351344 0.000000 0.000000 0.000000 1.076778 -1.307410 0.103540 0.544098 0.904556 -4.721019 -1.729315 -12.975346 14.158221 4.756824 6.964063 -5.797759 0.000000 0.000000 0.000000 0.000000 0.000000 0.000000 1.866851 -0.622936 -1.646175 0.975535 0.712805 1.042896 10.393025 6.431368 6.039290 -15.548420 -33.270107 -3.714078 0.000000 0.000000 0.000000 0.000000 0.000000 0.000000 5.387158 -0.385135 43.519333 -2.480884 2.472556 -0.170905 -0.041087 2.554124 1.542260 0.000000 0.000000 0.000000 5.073955 -1.120966 43.883549 -1.576283 1.748023 -0.196394 20.872041 -37.898963 7.170834 0.000000 0.000000 0.000000
-57.146909 70.774012 306.166599 -1.112435 1.538939 -47.494730 0.573906 -0.231646 47.477574 0.002460 0.198854 -0.044146 0.365662 1.771142 -0.107979 0.000000 0.000000 0.000000 -0.070116 -1.488553 0.394517 2.716382 1.186574 -4.705675 -6.298371 -16.581274 14.323646 5.541733 10.355098 -7.989807 0.000000 0.000000 0.000000 0.000000 0.000000 0.000000 1.326556 -0.188956 -1.346287 1.181498 0.039027 1.306822 6.819396 2.540342 5.646483 -8.219633 -26.078048 -2.127468 0.000000 0.000000 0.000000 0.000000 0.000000 0.000000 6.287033 -0.819347 47.930318 -2.508239 3.666548 -0.296825 0.025075 3.083306 1.911179 0.000000 0.000000 0.000000 4.953706 -0.490494 48.127051 -1.814389 1.555371 -0.242012 13.177875 -50.441601 5.215571 0.000000 0.000000 0.000000
-57.081470 70.827806 306.162669 -0.800008 1.409148 -45.203628 0.506601 -0.051303 45.197614 -0.199324 0.152794 -0.043398 -1.249319 1.394854 0.678791 0.000000 0.000000 0.000000 0.679967 -1.165612 0.066715 5.446207 0.802609 -3.126532 -12.036811 -17.083021 12.275134 7.266064 11.859782 -9.024679 0.000000 0.000000 0.000000 0.000000 0.000000 0.000000 1.360325 0.667262 -2.416111 0.525794 -1.199004 2.576359 3.617323 1.241326 3.054829 -1.927968 -22.722771 0.838449 0.000000 0.000000 0.000000 0.000000 0.000000 0.000000 5.117844 -0.927697 45.552358 -2.132791 2.887595 -0.237362 -0.030978 3.794042 2.325034 0.000000 0.000000 0.000000 4.648767 -0.817973 45.854223 -1.969200 1.671942 -0.245538 19.586010 -51.440430 8.726591 0.000000 0.000000 0.000000
-56.952687 70.894733 306.246776 -0.859463 1.320082 -40.756159 0.195634 -0.145367 40.737244 -0.280272 0.147924 -0.065001 0.556319 0.860174 0.043465 0.000000 0.000000 0.000000 2.895818 1.312605 -0.874791 9.226324 -1.490972 0.112304 -8.193715 -14.969993 15.287680 1.775520 13.943063 -13.901001 0.000000 0.000000 0.000000 0.000000 0.000000 0.000000 2.317613 0.237846 -2.932372 -0.988043 -2.058796 4.193749 -0.125292 0.542127 -1.157048 4.351298 -22.409730 4.521174 0.000000 0.000000 0.000000 0.000000 0.000000 0.000000 4.297530 -0.438387 40.948397 -2.104444 1.823930 -0.121725 -0.003007 4.589944 2.845358 0.000000 0.000000 0.000000 5.161128 -1.467347 41.506431 -2.054113 3.185733 -0.616749 18.174896 -50.324871 8.251366 0.000000 0.000000 0.000000
-56.718773 70.931136 306.478984 -1.167904 1.219677 -34.045978 -0.515944 -0.286536 33.992588 -0.145836 0.050999 -0.097105 5.578818 -0.481827 -1.885434 0.000000 0.000000 0.000000 6.568363 3.393217 -2.084611 10.098309 -3.252820 3.401494 -8.506505 -9.298864 10.937554 1.112986 15.399723 -17.446125 0.000000 0.000000 0.000000 0.000000 0.000000 0.000000 3.477817 1.815597 -4.648154 -1.630490 -4.573569 6.713743 -2.952833 0.869085 -4.684865 8.946148 -23.699432 7.857195 0.000000 0.000000 0.000000 0.000000 0.000000 0.000000 3.681756 0.585758 34.021522 -2.210692 0.355568 0.044820 0.268516 4.240172 2.778690 0.000000 0.000000 0.000000 4.729380 -1.691977 34.702563 -1.773522 2.848924 -0.539860 14.991846 -43.107867 5.725065 0.000000 0.000000 0.000000
-56.409561 70.938393 306.801120 -1.578861 1.056126 -25.730723 -1.151722 -0.319122 25.643205 0.174387 -0.028584 -0.114746 10.607774 -1.184615 -3.975143 0.000000 0.000000 0.000000 12.457717 6.269099 -4.363190 12.464260 -4.801515 8.445242 -8.718476 -4.338345 8.085286 11.469167 7.967899 -13.065330 0.000000 0.000000 0.000000 0.000000 0.000000 0.000000 4.994907 3.994362 -7.381691 -2.881502 -7.773329 9.719195 -6.373124 -0.361639 -7.023960 14.526522 -22.482201 9.968419 0.000000 0.000000 0.000000 0.000000 0.000000 0.000000 3.671579 1.952105 25.467188 -3.626145 -1.364770 0.189217 1.554343 3.024638 2.083472 0.000000 0.000000 0.000000 3.854052 -1.174887 26.211007 -1.369433 1.686711 -0.416404 12.555072 -32.520100 3.679925 0.000000 0.000000 0.000000
